<?xml version="1.0" standalone="no"?>
<!DOCTYPE svg PUBLIC "-//W3C//DTD SVG 20010904//EN"
 "http://www.w3.org/TR/2001/REC-SVG-20010904/DTD/svg10.dtd">
<svg version="1.0" xmlns="http://www.w3.org/2000/svg"
 width="1575.000000pt" height="1575.000000pt" viewBox="0 0 1575.000000 1575.000000"
 preserveAspectRatio="xMidYMid meet">
<metadata>
Created by potrace 1.14, written by Peter Selinger 2001-2017
</metadata>
<g transform="translate(0.000000,1575.000000) scale(0.100000,-0.100000)"
fill="#000000" stroke="none">
<path d="M14014 14744 c-10 -22 -23 -42 -28 -46 -6 -4 -8 -8 -4 -8 4 0 -4 -12
-17 -26 -14 -15 -25 -31 -25 -35 0 -11 -62 -103 -72 -107 -4 -2 -8 -8 -8 -14
0 -5 -6 -15 -12 -22 -7 -8 -33 -37 -58 -66 -64 -75 -170 -189 -204 -219 -16
-14 -50 -47 -77 -72 -27 -26 -72 -66 -101 -90 -29 -24 -62 -51 -73 -61 -25
-22 -91 -75 -136 -110 -114 -88 -141 -109 -204 -153 -38 -26 -72 -51 -75 -54
-3 -3 -12 -10 -22 -16 -9 -5 -74 -49 -145 -96 -70 -47 -146 -96 -168 -109 -22
-13 -42 -27 -45 -30 -4 -5 -279 -168 -375 -223 -46 -26 -473 -237 -479 -237
-4 0 -55 -23 -114 -51 -59 -28 -129 -60 -157 -71 -47 -18 -127 -53 -390 -168
-60 -26 -146 -62 -190 -80 -107 -43 -144 -59 -180 -75 -53 -23 -148 -63 -230
-95 -75 -29 -123 -49 -170 -71 -29 -13 -625 -248 -770 -304 -237 -90 -410
-153 -606 -219 -125 -42 -240 -83 -255 -91 -16 -8 -36 -15 -44 -15 -9 0 -20
-4 -25 -8 -6 -5 -46 -24 -90 -42 -44 -19 -86 -40 -93 -47 -7 -7 -18 -13 -23
-13 -13 0 -140 -82 -199 -128 -107 -85 -219 -230 -255 -332 -35 -99 -44 -164
-41 -290 2 -69 6 -136 10 -150 3 -14 9 -41 13 -60 8 -41 8 -41 15 -60 3 -8 15
-44 26 -80 51 -159 106 -282 201 -455 24 -44 54 -98 66 -120 37 -68 124 -206
140 -221 8 -9 15 -20 15 -25 0 -5 9 -20 21 -33 12 -13 22 -28 22 -33 1 -4 37
-59 79 -121 43 -63 78 -117 78 -120 0 -4 9 -13 21 -20 12 -7 18 -16 15 -19 -3
-3 13 -32 35 -65 23 -33 59 -101 81 -151 22 -51 44 -96 48 -102 4 -5 17 -37
29 -69 12 -33 31 -73 43 -89 24 -34 80 -176 110 -282 25 -86 32 -253 13 -325
-13 -50 -69 -157 -103 -196 -34 -40 -106 -84 -166 -103 -130 -40 -272 -6 -367
89 -31 31 -66 74 -77 95 l-21 40 4 -71 c2 -57 11 -89 40 -155 21 -46 51 -104
68 -129 30 -44 125 -187 222 -336 100 -152 157 -252 231 -402 101 -207 148
-341 169 -487 4 -27 10 -59 12 -70 12 -51 11 -484 -2 -566 -30 -195 -90 -373
-192 -574 -33 -64 -118 -203 -132 -215 -3 -3 -24 -27 -46 -55 -119 -147 -285
-281 -461 -368 -163 -82 -347 -142 -529 -172 -77 -13 -375 -14 -450 -1 -16 2
-55 8 -85 11 -144 16 -263 48 -433 114 -289 114 -415 200 -618 421 -84 92
-201 294 -270 467 -158 397 -195 695 -133 1078 9 56 83 330 114 425 160 482
516 851 985 1020 161 58 230 82 250 86 73 15 203 34 275 40 47 3 88 8 92 10 4
3 69 7 145 10 76 3 139 8 141 9 2 2 -45 19 -105 38 -59 20 -135 45 -168 57
-33 12 -67 23 -75 25 -19 4 -107 28 -180 50 -30 9 -65 18 -76 20 -12 3 -35 12
-50 20 -16 8 -36 15 -44 15 -42 0 -331 81 -397 111 -24 10 -45 19 -48 19 -14
0 -117 72 -146 102 -37 38 -72 110 -64 131 5 12 16 11 73 -5 37 -11 81 -23 97
-28 17 -4 145 -40 285 -80 285 -81 364 -101 496 -129 116 -25 302 -46 312 -36
4 4 0 10 -8 13 -23 8 -274 135 -280 141 -3 4 -41 25 -85 47 -204 105 -301 157
-315 168 -8 7 -49 29 -90 50 -71 37 -129 68 -230 124 -25 14 -63 35 -85 47
-22 12 -128 70 -235 129 -173 96 -231 129 -370 209 -19 11 -71 40 -115 64 -44
24 -109 62 -145 84 -36 21 -87 51 -115 65 -27 14 -84 45 -125 70 -90 53 -188
101 -221 108 -13 3 -40 10 -59 16 -33 9 -180 31 -225 32 -65 2 -125 -3 -125
-10 0 -4 13 -15 28 -24 75 -45 233 -202 320 -319 34 -46 66 -88 70 -94 17 -22
52 -106 52 -126 0 -11 -5 -29 -10 -39 -22 -42 -170 -125 -365 -207 -33 -14
-73 -31 -90 -38 -16 -7 -59 -25 -95 -40 -36 -15 -83 -35 -105 -45 -22 -9 -60
-26 -85 -37 -48 -21 -208 -81 -355 -133 -96 -34 -203 -74 -247 -93 -16 -7 -28
-17 -28 -24 0 -13 67 -61 110 -79 96 -42 199 -97 203 -109 4 -10 -10 -20 -49
-34 -30 -12 -65 -27 -77 -35 -12 -8 -25 -15 -30 -15 -13 -1 -104 -50 -206
-111 -55 -33 -104 -60 -110 -60 -5 0 -11 -4 -13 -8 -1 -4 -39 -32 -83 -62 -44
-30 -82 -57 -85 -60 -3 -3 -34 -25 -70 -50 -209 -144 -315 -314 -275 -441 14
-44 142 -225 255 -359 140 -166 176 -208 251 -286 108 -112 188 -188 194 -182
3 3 -4 28 -16 54 -63 141 -164 429 -219 629 -25 88 -34 202 -19 243 9 26 66
92 125 142 62 54 274 210 374 275 58 37 128 83 155 101 28 17 71 42 97 54 27
12 48 26 48 32 0 5 4 7 9 3 5 -3 12 -1 15 4 3 5 34 23 68 41 81 41 87 47 57
58 -103 40 -214 105 -214 127 0 14 29 28 121 60 229 79 279 97 309 111 61 26
326 107 332 101 5 -6 -29 -65 -62 -105 -7 -9 -42 -54 -76 -99 -33 -46 -65 -83
-70 -83 -5 0 -9 -4 -9 -10 0 -9 -19 -35 -48 -65 -13 -15 -16 -35 -4 -35 4 0
54 27 111 61 58 33 143 79 190 102 83 41 89 42 181 41 105 0 129 -9 435 -154
320 -152 451 -190 633 -185 139 3 165 7 316 44 64 16 116 25 116 20 0 -8 -96
-69 -160 -102 -19 -10 -53 -34 -75 -53 -34 -30 -36 -34 -15 -28 14 4 38 6 55
6 16 -1 53 5 80 12 53 15 234 32 224 21 -4 -3 -48 -17 -100 -31 -552 -152
-1027 -546 -1283 -1067 -143 -291 -205 -548 -211 -877 -5 -269 23 -455 105
-703 166 -496 539 -925 1013 -1163 96 -49 217 -100 257 -109 8 -2 35 -10 60
-19 139 -48 247 -78 345 -96 61 -11 122 -22 136 -25 94 -18 178 -23 359 -23
329 0 463 20 723 109 411 139 687 354 891 696 50 84 119 235 140 308 10 33 24
78 31 100 16 48 62 254 70 310 3 22 8 51 10 65 7 38 16 149 31 365 3 44 7 94
9 111 2 17 6 82 9 145 8 145 16 241 21 268 2 12 5 47 6 77 2 54 4 57 43 83 23
14 46 29 51 33 6 5 33 25 61 45 79 58 148 119 245 218 90 91 233 270 244 306
4 10 11 19 16 19 5 0 9 9 9 19 0 11 5 23 11 27 27 16 151 303 165 379 3 16 9
34 13 40 5 5 11 26 14 45 3 19 10 53 15 75 6 22 13 51 16 65 3 14 7 35 10 47
2 12 8 53 11 90 4 37 9 70 10 73 7 11 18 349 18 535 0 187 -10 465 -19 508 -2
12 -6 44 -9 71 -2 27 -9 74 -14 105 -6 31 -13 74 -17 96 -4 22 -8 45 -10 50
-40 155 -34 194 40 262 87 81 212 179 346 273 65 45 518 347 562 375 9 6 110
70 225 144 331 214 421 271 428 271 2 0 37 21 77 46 40 26 109 70 153 98 44
28 89 57 100 64 82 51 140 90 157 105 12 9 24 17 28 17 4 0 18 9 31 20 36 30
42 34 74 54 92 58 403 301 520 406 69 62 271 265 321 321 165 188 307 418 365
592 34 100 57 257 39 257 -4 0 -34 -25 -66 -56 -33 -31 -95 -88 -139 -126 -44
-38 -89 -78 -100 -87 -39 -34 -245 -191 -287 -218 -24 -15 -45 -30 -48 -33
-17 -19 -300 -210 -438 -296 -35 -21 -74 -46 -87 -54 -221 -141 -684 -412
-800 -470 -16 -8 -32 -17 -35 -20 -3 -3 -34 -21 -70 -39 -91 -48 -104 -55
-110 -61 -3 -3 -14 -10 -25 -16 -27 -15 -102 -57 -145 -81 -64 -36 -245 -148
-250 -153 -3 -4 -30 -21 -60 -38 -94 -56 -173 -107 -221 -143 -25 -19 -61 -41
-80 -49 -19 -8 -36 -17 -39 -20 -10 -12 -136 -98 -166 -113 -29 -15 -254 -173
-264 -186 -5 -6 -94 -66 -290 -193 -127 -82 -175 -121 -261 -207 -41 -41 -49
-55 -64 -124 -25 -114 -25 -175 -1 -362 3 -22 7 -51 11 -65 3 -14 8 -38 11
-55 3 -16 9 -49 15 -73 5 -23 12 -59 15 -80 3 -20 9 -53 14 -72 5 -20 12 -51
14 -70 3 -19 8 -48 11 -65 7 -38 22 -127 30 -180 10 -68 23 -165 30 -225 3
-25 7 -56 10 -70 18 -107 25 -530 12 -746 -7 -113 -9 -133 -22 -201 -3 -16 -8
-44 -11 -63 -11 -67 -54 -228 -84 -314 -61 -173 -184 -392 -301 -533 -18 -23
-28 -13 -24 25 2 20 6 72 10 116 10 103 10 817 1 971 -4 66 -14 160 -22 209
-8 50 -17 113 -20 140 -2 28 -7 60 -9 72 -3 12 -7 39 -10 60 -4 21 -15 70 -27
108 -11 38 -21 76 -23 85 -2 9 -8 36 -14 61 -7 25 -13 52 -15 61 -3 9 -9 33
-15 55 -18 68 -42 168 -52 212 -19 95 -213 686 -276 842 -74 186 -91 323 -52
440 11 36 30 78 41 95 42 61 131 133 256 204 70 41 138 81 152 90 14 8 31 16
38 17 7 1 19 8 27 14 14 12 42 28 140 80 48 25 171 94 207 115 9 6 36 22 60
36 48 29 155 91 238 137 30 17 91 51 135 76 44 25 84 46 89 46 5 0 17 7 26 15
22 20 174 112 235 143 28 13 109 59 180 102 160 95 407 240 457 268 33 19 79
46 133 79 16 9 196 117 283 168 100 60 191 114 221 133 20 12 52 31 71 42 19
11 44 26 54 33 98 62 158 97 165 97 5 0 11 3 13 8 2 4 37 27 78 51 101 59 172
103 296 184 58 37 109 67 114 67 6 0 10 4 10 8 0 5 12 15 28 23 27 14 297 203
318 223 6 6 29 25 50 41 149 116 189 151 344 305 120 118 261 284 318 374 14
23 35 51 46 64 11 12 16 22 12 22 -4 0 6 19 22 43 76 111 173 360 208 532 24
121 20 391 -6 419 -4 4 -16 -9 -26 -30z"/>
<path d="M7498 12794 c-2 -2 -44 -6 -94 -10 -49 -3 -92 -8 -95 -10 -3 -1 -48
-6 -100 -10 -52 -3 -97 -8 -100 -10 -3 -1 -28 -6 -55 -9 -158 -21 -423 -80
-584 -131 -494 -154 -914 -404 -1242 -736 -100 -103 -278 -315 -278 -332 0
-10 37 -44 95 -90 28 -22 88 -72 135 -110 46 -39 93 -78 103 -86 11 -8 29 -24
41 -36 11 -11 44 -38 71 -60 28 -21 52 -41 55 -44 3 -3 88 -75 190 -160 202
-170 232 -195 267 -227 13 -11 43 -36 65 -55 38 -30 178 -149 204 -173 6 -5
33 -28 60 -50 26 -22 69 -57 94 -78 25 -21 54 -46 66 -55 11 -9 56 -48 100
-87 44 -38 105 -91 135 -117 30 -25 65 -56 79 -68 14 -12 47 -41 74 -64 99
-83 271 -230 276 -236 3 -3 23 -20 45 -39 22 -19 74 -64 114 -100 41 -36 100
-88 130 -115 31 -26 91 -80 135 -120 43 -39 90 -80 104 -91 29 -23 133 -126
178 -176 17 -19 58 -59 90 -89 153 -144 186 -207 179 -349 -2 -47 -8 -101 -14
-118 -15 -51 2 -39 28 20 37 83 39 88 62 166 32 108 32 274 1 356 -56 146
-121 221 -602 706 -382 384 -783 794 -950 970 -334 352 -360 381 -413 443 -23
27 -55 63 -72 80 -85 90 -182 201 -198 227 l-18 28 128 129 c180 181 371 329
621 481 73 44 132 78 132 75 0 -3 12 3 28 14 23 17 252 130 307 152 11 4 37
15 58 25 208 91 524 180 727 203 194 22 1198 -10 1385 -44 11 -2 40 -5 65 -8
39 -4 111 -15 210 -31 25 -4 107 -25 168 -44 53 -16 27 8 -43 39 -136 61 -396
138 -575 169 -36 7 -87 16 -115 21 -70 13 -190 29 -250 34 -66 6 -160 16 -215
23 -50 6 -986 13 -992 7z"/>
<path d="M8647 12384 c-1 -1 -75 -4 -164 -8 -89 -3 -168 -8 -175 -10 -7 -3
-49 -7 -92 -11 -44 -3 -82 -7 -85 -9 -3 -2 -29 -6 -56 -9 -28 -3 -57 -8 -65
-11 -8 -3 -31 -7 -50 -10 -61 -9 -271 -63 -375 -96 -301 -97 -650 -267 -914
-446 -51 -35 -97 -64 -102 -64 -5 0 -9 -3 -9 -7 0 -5 -17 -19 -38 -33 -60 -40
-202 -151 -202 -158 0 -7 42 -53 192 -212 49 -52 117 -124 150 -160 34 -36 95
-101 137 -146 42 -44 119 -127 171 -183 52 -57 111 -120 130 -141 19 -20 73
-78 120 -129 46 -51 111 -121 145 -156 33 -34 105 -111 160 -171 118 -129 338
-348 378 -376 24 -17 28 -18 33 -3 4 9 0 23 -8 33 -9 9 -46 75 -83 146 -37 71
-110 199 -161 284 -52 85 -94 156 -94 158 0 1 -22 37 -50 78 -27 42 -50 78
-50 82 0 4 -16 29 -35 55 -19 27 -35 51 -35 54 0 3 -5 11 -10 18 -6 7 -59 84
-117 172 -127 192 -180 264 -261 359 -60 70 -82 117 -82 172 0 80 45 150 156
243 21 18 335 181 348 181 2 0 37 15 78 34 40 18 105 46 143 61 39 15 98 38
133 52 67 26 378 130 415 138 12 2 40 9 62 15 22 6 51 13 64 16 14 3 28 7 33
10 5 3 21 8 36 10 15 3 92 18 172 34 80 16 165 31 190 35 56 7 119 16 145 21
11 2 48 6 83 10 35 3 73 7 85 10 12 2 90 4 174 5 84 0 155 4 158 8 2 5 -16 9
-41 9 -24 1 -48 3 -53 6 -4 3 -59 8 -122 11 -62 4 -123 9 -134 11 -39 8 -421
24 -428 18z"/>
<path d="M12527 10094 c-1 -2 -34 -5 -72 -8 -92 -7 -112 -11 -230 -46 -55 -17
-109 -32 -120 -34 -22 -4 -48 -14 -143 -57 -35 -16 -65 -29 -68 -29 -12 0
-124 -73 -124 -80 0 -4 -12 -11 -27 -15 -15 -3 -30 -10 -33 -13 -3 -4 -23 -19
-45 -33 -45 -30 -196 -174 -212 -203 -13 -24 -73 -92 -139 -159 -28 -29 -65
-72 -82 -97 -16 -25 -40 -55 -51 -67 -12 -12 -21 -25 -21 -28 0 -3 -7 -13 -16
-22 -39 -45 -67 -81 -91 -120 -13 -24 -29 -43 -34 -43 -5 0 -9 -4 -9 -10 0 -5
-24 -49 -53 -97 -105 -174 -200 -398 -258 -608 -11 -38 -21 -74 -23 -80 -3
-12 -14 -66 -21 -110 -3 -16 -7 -57 -11 -90 -3 -33 -7 -67 -9 -75 -3 -8 -7
-49 -11 -90 -3 -41 -9 -102 -13 -135 -9 -79 -1 -286 14 -355 3 -14 7 -52 10
-85 3 -33 7 -71 10 -85 3 -13 7 -42 11 -65 8 -49 12 -70 15 -70 1 0 3 -9 4
-20 5 -48 38 -181 47 -192 6 -7 8 -13 5 -13 -3 0 1 -21 9 -47 8 -27 16 -52 18
-58 3 -11 12 -35 31 -85 20 -52 28 -74 30 -80 1 -3 9 -22 18 -44 9 -21 17 -40
17 -42 0 -3 118 -250 155 -324 12 -25 48 -89 79 -142 31 -53 56 -101 56 -107
0 -5 4 -11 9 -13 11 -4 66 -91 63 -100 -1 -5 3 -8 8 -8 6 0 10 -4 10 -9 0 -5
25 -47 55 -93 30 -45 55 -88 55 -95 0 -6 4 -13 8 -15 13 -5 122 -162 122 -175
0 -7 4 -13 9 -13 5 0 27 -30 50 -67 64 -105 66 -108 71 -113 12 -11 110 -150
110 -156 0 -6 60 -95 69 -104 3 -3 12 -14 19 -25 37 -58 52 -81 61 -92 6 -7
11 -16 11 -21 0 -5 7 -15 15 -22 8 -7 21 -24 28 -39 27 -53 42 -76 60 -89 9
-7 17 -19 17 -26 0 -8 7 -17 16 -20 8 -3 12 -10 9 -16 -3 -5 -1 -10 4 -10 6 0
11 -4 11 -9 0 -6 14 -30 30 -54 17 -25 30 -50 30 -56 0 -6 5 -11 10 -11 6 0
10 -9 10 -20 0 -11 4 -20 8 -20 8 0 137 -252 177 -345 30 -70 33 -78 69 -182
52 -152 73 -249 78 -378 2 -27 -11 -215 -16 -240 -2 -11 -7 -45 -10 -76 -4
-31 -9 -67 -11 -79 -2 -12 -7 -41 -9 -64 -7 -50 -12 -72 -25 -111 -20 -56 -46
-153 -56 -205 -3 -19 -10 -39 -15 -46 -6 -6 -7 -13 -5 -16 3 -3 -9 -28 -28
-55 -49 -73 -36 -91 38 -52 56 30 184 167 185 197 0 6 4 12 9 12 5 0 13 10 17
23 3 12 12 29 18 37 18 21 93 199 100 235 3 17 8 46 11 65 3 19 11 53 17 75
22 78 42 205 41 260 -2 96 -13 217 -23 235 -6 11 -9 20 -6 20 12 0 -36 170
-97 345 -18 50 -31 93 -29 98 1 4 -2 7 -7 7 -4 0 -37 64 -71 143 -35 78 -70
150 -78 160 -8 9 -12 17 -9 17 3 0 -9 27 -28 60 -40 70 -105 208 -105 221 0 5
-4 9 -10 9 -5 0 -10 4 -10 9 0 12 -80 147 -156 263 -35 54 -64 102 -64 108 0
5 -3 10 -8 10 -4 0 -18 20 -32 44 -13 25 -28 43 -32 40 -4 -3 -8 -2 -8 3 0 4
-10 20 -23 35 -12 14 -30 36 -39 47 -10 12 -14 21 -10 21 4 0 -1 5 -10 11 -10
5 -18 16 -18 23 0 7 -9 24 -20 37 -29 35 -34 41 -52 70 -9 14 -24 34 -33 43
-9 9 -14 16 -10 16 3 0 -3 10 -14 22 -11 11 -18 24 -16 28 3 4 -4 15 -15 25
-11 10 -20 24 -20 32 0 7 -4 13 -9 13 -5 0 -14 14 -21 30 -7 17 -16 30 -21 30
-5 0 -9 6 -9 13 -1 6 -14 28 -30 47 -17 19 -30 37 -30 41 0 10 -91 143 -104
151 -6 4 -7 8 -2 8 5 0 1 9 -8 19 -9 10 -35 53 -56 96 -22 42 -46 89 -54 103
-33 61 -94 189 -105 222 -16 42 -31 80 -41 100 -4 8 -24 69 -44 135 -21 66
-44 140 -52 164 -8 24 -13 46 -10 48 3 3 1 16 -4 29 -12 30 -16 52 -36 174 -9
52 -18 106 -20 120 -17 91 -26 223 -27 410 -1 57 12 220 18 230 1 3 6 39 9 80
4 41 8 86 10 100 7 55 18 115 21 121 2 3 7 19 9 35 6 30 15 72 20 89 2 6 6 24
11 40 4 17 10 35 14 40 3 6 7 18 8 29 2 10 12 31 24 47 11 16 18 29 14 29 -3
0 0 10 7 23 7 12 11 25 10 30 -1 4 2 7 8 7 5 0 10 11 10 24 0 13 7 29 14 36 8
6 20 28 27 48 27 83 226 439 276 497 13 14 22 26 21 28 -3 4 33 45 105 117 37
38 67 66 67 63 0 -5 23 18 111 113 20 22 46 46 59 54 12 8 28 20 34 25 17 15
45 31 96 57 25 13 48 27 52 33 4 5 8 7 8 3 0 -4 23 6 50 22 28 17 53 30 56 30
2 0 21 11 42 25 20 13 52 27 71 30 19 3 41 10 50 14 9 5 40 12 70 15 29 4 58
9 62 12 20 12 219 5 294 -11 145 -30 218 -63 263 -117 15 -18 34 -39 44 -47 9
-9 24 -35 33 -58 10 -24 20 -43 24 -43 4 0 8 -6 9 -12 0 -7 2 -22 5 -33 2 -11
8 -42 11 -70 13 -88 68 -146 151 -158 34 -5 85 13 114 40 29 28 46 177 23 206
-5 7 -13 27 -17 46 -8 37 -65 154 -77 159 -4 2 -8 9 -8 15 0 7 -11 24 -25 39
-14 15 -25 29 -25 32 0 3 -18 24 -40 48 -22 24 -40 46 -40 51 0 4 -4 7 -10 7
-9 0 -100 59 -110 71 -26 32 -217 92 -366 115 -22 3 -57 9 -79 14 -39 8 -72 9
-78 4z"/>
<path d="M4850 8204 c-47 -23 -141 -70 -210 -103 -69 -34 -147 -73 -175 -88
-241 -133 -415 -286 -542 -478 -37 -55 -75 -112 -85 -127 -33 -50 -24 -50 79
-2 43 20 104 47 135 60 32 13 81 35 110 48 82 36 255 88 301 90 38 1 42 -1 40
-21 -2 -13 -14 -35 -27 -50 -48 -54 -115 -160 -159 -248 -11 -22 -23 -48 -28
-57 -26 -52 -72 -201 -85 -278 -2 -14 -9 -47 -14 -75 -22 -113 -28 -304 -15
-515 4 -74 8 -143 8 -152 1 -15 4 -15 24 4 13 12 23 27 23 33 0 7 13 28 30 46
16 19 30 40 30 47 0 6 5 12 10 12 6 0 10 4 10 10 0 10 77 118 103 145 9 8 24
25 34 38 26 33 104 93 131 101 33 11 36 -12 14 -86 -11 -36 -23 -87 -26 -114
-3 -27 -8 -60 -11 -73 -18 -92 -25 -436 -11 -551 4 -30 9 -71 11 -90 13 -109
23 -177 36 -240 6 -25 14 -65 19 -90 41 -217 172 -537 295 -723 25 -38 45 -71
45 -73 0 -4 18 -27 63 -77 47 -54 47 -72 -4 -272 -19 -73 -26 -101 -32 -130
-2 -5 -6 -16 -10 -22 -5 -7 -6 -13 -3 -13 3 0 -8 -37 -23 -82 -15 -46 -29 -86
-30 -90 -3 -14 -27 -87 -37 -113 -4 -11 -8 -26 -10 -33 -1 -8 -10 -30 -19 -50
-19 -43 -24 -56 -55 -137 -20 -52 -177 -368 -205 -414 -6 -9 -23 -38 -40 -66
-16 -27 -32 -52 -35 -55 -3 -3 -21 -27 -40 -55 -19 -27 -38 -51 -42 -53 -4 -2
-8 -9 -8 -15 0 -7 -13 -26 -28 -44 -15 -17 -43 -51 -62 -74 -85 -103 -108
-127 -231 -241 -61 -55 -82 -73 -167 -132 -85 -59 -253 -146 -282 -146 -9 0
-20 -3 -24 -7 -3 -4 -12 -8 -19 -9 -7 -2 -37 -10 -67 -18 -83 -22 -154 -26
-207 -12 -54 15 -123 46 -123 56 0 4 -6 7 -12 7 -7 0 -29 8 -48 16 -31 14 -39
14 -75 0 -58 -22 -104 -27 -131 -14 -13 6 -34 15 -46 20 -13 5 -50 21 -83 36
-83 38 -114 38 -239 -6 -60 -22 -125 -38 -145 -37 -47 1 -141 -26 -174 -52
-14 -11 -29 -20 -34 -20 -10 0 -53 -52 -75 -93 -18 -32 -25 -97 -10 -97 4 0
13 -14 20 -30 16 -35 68 -90 86 -90 6 0 25 27 40 60 16 33 31 60 35 60 3 0 20
12 36 28 38 34 93 62 129 66 26 3 76 -13 76 -25 0 -3 -17 -18 -39 -34 -70 -53
-76 -126 -16 -188 43 -44 71 -52 87 -24 7 12 13 28 14 35 1 8 4 15 6 16 2 2
20 15 42 31 36 28 43 29 145 29 58 0 122 -3 141 -8 61 -14 104 -14 159 1 30 7
55 12 57 11 1 -2 -6 -21 -16 -43 -17 -37 -17 -42 -3 -65 34 -55 93 -80 93 -40
0 11 5 20 11 20 5 0 8 4 4 9 -10 17 98 59 171 66 54 6 85 3 130 -10 72 -21
188 -27 223 -12 14 6 42 21 61 34 50 32 170 69 282 88 74 13 136 16 265 12 92
-3 177 -7 188 -10 24 -5 114 -20 135 -22 82 -7 177 -34 268 -76 84 -39 73 -41
192 29 45 26 126 49 165 47 42 -2 94 -27 101 -48 8 -27 39 -40 54 -22 7 8 18
15 24 15 16 0 54 43 67 76 6 16 13 48 14 72 6 110 -118 152 -316 106 -53 -12
-75 -13 -109 -4 -46 12 -117 14 -256 7 -84 -5 -95 -3 -126 18 -19 13 -35 32
-36 42 -1 25 38 123 49 123 5 0 8 3 7 8 -2 4 6 20 17 35 23 33 131 147 139
147 2 0 3 -30 0 -67 -3 -46 0 -69 8 -74 16 -10 172 149 224 227 20 31 43 58
51 61 7 3 13 13 13 24 0 10 6 22 13 26 6 4 20 25 29 46 10 20 22 37 28 37 15
0 25 -4 23 -10 -15 -49 -24 -180 -12 -180 13 0 72 40 77 52 2 4 10 8 18 8 8 0
14 5 14 10 0 6 5 10 11 10 7 0 20 10 30 22 11 11 19 18 19 15 0 -7 174 167
203 202 9 12 17 26 17 31 0 6 6 10 14 10 8 0 17 11 20 25 4 14 11 25 16 25 6
0 10 4 10 10 0 13 32 50 43 50 5 0 7 -22 5 -49 -4 -41 -1 -50 13 -54 10 -3 26
4 35 14 9 10 21 19 26 19 23 0 195 172 305 307 10 12 26 31 36 42 9 12 17 26
17 31 0 6 3 10 8 10 4 0 18 17 32 38 14 20 27 39 30 42 13 11 90 133 90 141 0
13 8 12 131 -25 186 -56 404 -110 537 -132 15 -2 50 -9 77 -14 42 -7 107 -15
210 -25 11 -1 52 -5 90 -9 69 -7 303 -8 380 -2 22 2 83 7 135 11 52 4 104 9
114 11 11 2 56 8 100 14 45 6 92 13 106 16 14 3 52 9 84 15 258 44 667 179
800 264 28 18 72 41 98 53 63 28 108 61 254 190 115 101 169 180 78 113 -53
-39 -278 -151 -389 -194 -202 -79 -316 -101 -685 -133 -41 -4 -86 -8 -100 -9
-14 -1 -61 -6 -105 -10 -44 -3 -96 -8 -115 -10 -203 -23 -699 -23 -806 -1 -11
2 -46 7 -76 10 -203 22 -550 116 -785 214 -90 38 -276 125 -283 132 -3 3 -39
25 -80 49 -41 25 -77 47 -80 50 -6 8 -36 26 -82 51 -21 11 -61 39 -90 63 -29
23 -64 50 -78 59 -30 19 -230 218 -321 320 -102 112 -121 137 -180 223 -30 44
-56 82 -59 85 -10 10 -53 89 -100 185 -65 135 -109 271 -136 425 -2 14 -6 34
-9 45 -11 52 -19 218 -19 400 0 222 6 316 28 450 8 50 17 104 19 120 3 17 12
53 20 80 8 28 25 84 38 125 27 92 49 147 106 269 46 99 111 214 125 219 4 2 8
9 8 15 0 11 26 47 65 90 9 10 15 20 13 22 -6 6 -201 -78 -298 -128 -139 -72
-226 -133 -305 -213 -86 -87 -97 -100 -112 -137 -14 -32 -37 -32 -39 2 -2 31
22 126 47 190 82 207 370 506 636 663 119 69 236 126 274 131 8 2 19 5 24 9 6
3 33 9 60 13 101 15 87 23 -84 50 -19 3 -38 8 -42 10 -32 20 -464 24 -579 6
-41 -7 -86 -14 -100 -17 -14 -2 -37 -6 -52 -9 -38 -9 -42 9 -10 47 45 53 73
96 65 101 -5 3 -46 -15 -93 -39z"/>
<path d="M10060 5833 c-23 -16 -51 -45 -101 -103 -39 -47 -90 -171 -103 -255
-32 -199 -24 -324 26 -435 50 -109 160 -244 282 -345 26 -22 53 -45 60 -50 9
-9 37 -31 151 -117 6 -4 24 -18 40 -31 17 -13 65 -47 109 -76 43 -29 83 -57
90 -62 6 -5 124 -84 261 -176 138 -91 259 -173 270 -183 11 -10 56 -42 100
-71 44 -29 85 -57 90 -61 177 -134 324 -277 389 -378 114 -175 134 -236 130
-387 -1 -54 -5 -109 -7 -123 -3 -14 -8 -43 -12 -65 -11 -68 -46 -166 -87 -250
-22 -44 -43 -82 -47 -85 -4 -3 -17 -21 -28 -40 -23 -38 -115 -129 -173 -172
-36 -26 -153 -93 -158 -90 -1 1 -17 -4 -36 -12 -34 -14 -157 -45 -211 -52 -85
-13 -275 -11 -335 2 -36 8 -76 16 -90 18 -22 4 -72 24 -180 74 -83 38 -221
142 -320 241 -58 58 -113 117 -123 131 -10 14 -45 63 -78 110 -34 47 -68 99
-75 115 -8 17 -26 48 -39 70 -14 22 -29 49 -34 60 -5 11 -18 41 -30 65 -46
101 -54 141 -56 278 -2 146 14 255 60 408 27 89 93 255 121 307 13 24 13 27 0
27 -8 0 -22 -7 -30 -16 -9 -9 -39 -33 -66 -53 -161 -121 -276 -263 -463 -572
-41 -68 -99 -164 -129 -214 -30 -49 -74 -135 -97 -190 -69 -160 -130 -286
-164 -340 -51 -81 -109 -155 -130 -167 -11 -5 -78 -12 -149 -14 -113 -3 -133
-1 -161 16 -54 32 -118 61 -194 86 -59 19 -94 24 -195 24 -86 1 -136 -3 -164
-13 -46 -17 -106 -46 -114 -56 -3 -3 -23 -18 -45 -32 -52 -34 -167 -128 -230
-189 -131 -126 -145 -150 -161 -280 -8 -59 22 -137 62 -165 29 -20 45 -20 819
-19 435 1 804 4 820 8 17 3 41 8 53 10 66 14 124 74 137 143 9 50 39 89 72 97
71 17 223 127 223 162 0 8 4 14 8 14 4 0 13 14 19 30 17 44 44 38 84 -17 41
-58 43 -60 152 -153 87 -74 100 -85 187 -149 45 -33 149 -85 205 -102 67 -21
214 -49 285 -54 41 -3 203 -8 360 -10 265 -5 291 -4 365 16 91 23 123 37 215
93 238 144 437 357 545 583 59 122 122 294 139 377 51 247 -26 542 -224 857
-44 71 -165 232 -215 289 -62 69 -276 280 -335 330 -30 25 -70 59 -89 76 -45
39 -239 184 -326 244 -73 50 -224 159 -246 178 -8 7 -39 31 -69 54 -30 24 -57
45 -60 48 -3 3 -30 25 -60 50 -153 126 -325 312 -390 423 -39 66 -63 149 -66
236 -2 47 -5 86 -7 87 -2 2 -14 -4 -27 -13z"/>
</g>
</svg>
